<?xml version="1.0" encoding="utf-8"?>
<!-- Generator: Adobe Illustrator 18.0.0, SVG Export Plug-In . SVG Version: 6.00 Build 0)  -->
<!DOCTYPE svg PUBLIC "-//W3C//DTD SVG 1.1//EN" "http://www.w3.org/Graphics/SVG/1.1/DTD/svg11.dtd">
<svg version="1.1" id="Layer_1" xmlns="http://www.w3.org/2000/svg" xmlns:xlink="http://www.w3.org/1999/xlink" x="0px" y="0px"
	 viewBox="0 0 720 576" enable-background="new 0 0 720 576" xml:space="preserve">
<path d="M140.7,177.5v15.3c0,4.3-3.3,7.6-7.6,7.6H98.3v198.1c0,3.8-3.3,7.6-7.6,7.6H75.4c-4.3,0-7.6-3.8-7.6-7.6V200.4H33
	c-4.3,0-7.6-3.3-7.6-7.6v-15.3c0-4.3,3.3-7.6,7.6-7.6h100C137.3,169.9,140.7,173.2,140.7,177.5z M246.5,383.2v15.3
	c0,3.8-3.3,7.6-7.6,7.6h-68c-8.6,0-15.3-7.2-15.3-15.3V177.5c0-4.3,3.3-7.6,7.6-7.6h15.3c3.8,0,7.6,3.3,7.6,7.6v198.1h52.8
	C243.2,375.6,246.5,378.9,246.5,383.2z M453,224.8v173.8c0,3.8-3.3,7.6-7.6,7.6h-15.3c-4.3,0-7.6-3.8-7.6-7.6V224.8
	c0-13.4-11-24.3-24.8-24.3c-13.4,0-24.3,11-24.3,24.3v173.8c0,3.8-3.3,7.6-7.6,7.6h-15.3c-4.3,0-7.6-3.8-7.6-7.6V224.8
	c0-13.4-11-24.3-24.3-24.3c-13.8,0-24.8,11-24.8,24.3v173.8c0,3.8-3.3,7.6-7.6,7.6h-15.3c-3.8,0-7.6-3.8-7.6-7.6V224.8
	c0-30.1,24.8-54.9,55.4-54.9c15.3,0,29.6,6.7,39.6,17.2c10-10.5,24.3-17.2,39.6-17.2C428.2,169.9,453,194.7,453,224.8z M488.5,296.1
	v-5.5c0-4.7-3.7-8.2-8.2-8.2s-8.2,3.5-8.2,8.2v42.6c0,4.5,3.7,8.2,8.2,8.2s8.2-3.7,8.2-8.2v-16.6h-5.6c-1.4,0-2.6-1.1-2.6-2.4v-5.1
	c0-1.4,1.1-2.6,2.6-2.6h13.4c1.4,0,2.6,1.1,2.6,2.6v24.1c0,10.1-8.4,18.3-18.5,18.3s-18.5-8.2-18.5-18.3v-42.6
	c0-10.3,8.4-18.5,18.5-18.5s18.5,8.2,18.5,18.5v5.5c0,1.4-1.1,2.6-2.6,2.6h-5.1C489.6,298.6,488.5,297.5,488.5,296.1z M545.9,298.2
	c0,5.3-2.1,10.1-5.6,13.5c3.5,3.4,5.6,8,5.6,13.4v24c0,1.3-1.1,2.6-2.6,2.6h-5.1c-1.4,0-2.6-1.3-2.6-2.6v-24c0-4.5-3.7-8.2-8.2-8.2
	h-8.2V349c0,1.3-1.3,2.6-2.6,2.6h-5.1c-1.4,0-2.6-1.3-2.6-2.6v-71.9c0-2.9,2.3-5.1,5.1-5.1h13.4c10.3,0,18.5,8.4,18.5,18.5V298.2z
	 M535.6,290.4c0-4.5-3.7-8.2-8.2-8.2h-8.2v24.3h8.2c4.5,0,8.2-3.7,8.2-8.4V290.4z M591.7,290.4v42.5c0,10.3-8.4,18.7-18.5,18.7
	c-10.3,0-18.7-8.4-18.7-18.7v-42.5c0-10.1,8.4-18.5,18.7-18.5C583.4,271.9,591.7,280.3,591.7,290.4z M581.4,290.4
	c0-4.5-3.7-8.2-8.2-8.2c-4.7,0-8.4,3.7-8.4,8.2v42.5c0,4.7,3.7,8.4,8.4,8.4c4.5,0,8.2-3.7,8.2-8.4V290.4z M638,274.5v58.4
	c0,10.3-8.4,18.7-18.5,18.7c-10.3,0-18.7-8.4-18.7-18.7v-58.4c0-1.4,1.3-2.6,2.6-2.6h5.1c1.4,0,2.6,1.1,2.6,2.6v58.4
	c0,4.7,3.7,8.4,8.4,8.4c4.5,0,8.2-3.7,8.2-8.4v-58.4c0-1.4,1.1-2.6,2.6-2.6h5.1C636.8,271.9,638,273.1,638,274.5z M685.1,290.4v7.7
	c0,10.3-8.4,18.7-18.5,18.7h-8.4V349c0,1.3-1.1,2.6-2.6,2.6h-5.1c-1.3,0-2.6-1.3-2.6-2.6v-32.2v-10.3v-32c0-1.4,1.3-2.6,2.6-2.6
	h16.1C676.7,271.9,685.1,280.3,685.1,290.4z M674.8,290.4c0-4.5-3.7-8.2-8.2-8.2h-8.4v24.3h8.4c4.5,0,8.2-3.7,8.2-8.4V290.4z
	 M683.8,358.1h-212c-6,0-10.8,4.9-10.8,10.8v26.4c0,6,4.9,10.8,10.8,10.8h212c6,0,10.8-4.9,10.8-10.8v-26.4
	C694.6,362.9,689.8,358.1,683.8,358.1z M654.6,396.8c0,0.5-0.4,1-1,1H646c-1.1,0-2-1-2-2v-28.4c0-0.6,0.4-1,1-1h2c0.5,0,1,0.4,1,1
	v26.4h5.5c0.6,0,1,0.4,1,1V396.8z M667.9,396.8c0,0.5-0.4,1-1,1h-7.5c-1.1,0-2-1-2-2v-28.4c0-0.6,0.4-1,1-1h2c0.5,0,1,0.4,1,1v26.4
	h5.5c0.6,0,1,0.4,1,1V396.8z M685.1,375.8c0,0.6-0.4,1-1,1h-2c-0.6,0-1-0.4-1-1v-2.2c0-1.8-1.5-3.2-3.2-3.2c-1.8,0-3.2,1.5-3.2,3.2
	v16.8c0,1.8,1.5,3.2,3.2,3.2c1.8,0,3.2-1.5,3.2-3.2v-2.4c0-0.6,0.4-1,1-1h2c0.6,0,1,0.4,1,1v2.4c0,4-3.3,7.3-7.3,7.3
	c-4.1,0-7.3-3.3-7.3-7.3v-16.8c0-4,3.2-7.3,7.3-7.3c4,0,7.3,3.3,7.3,7.3V375.8z"/>
</svg>
